<?xml version="1.0" encoding="UTF-8" standalone="no"?><svg xmlns="http://www.w3.org/2000/svg" xmlns:xlink="http://www.w3.org/1999/xlink" contentScriptType="application/ecmascript" contentStyleType="text/css" height="513px" preserveAspectRatio="none" style="width:469px;height:513px;" version="1.1" viewBox="0 0 469 513" width="469px" zoomAndPan="magnify"><defs/><g><text fill="#000000" font-family="sans-serif" font-size="14" font-weight="bold" lengthAdjust="spacingAndGlyphs" textLength="220" x="125.5" y="23.5352">Reactive Streams Specification</text><text fill="#000000" font-family="sans-serif" font-size="14" font-weight="bold" lengthAdjust="spacingAndGlyphs" textLength="232" x="119.5" y="40.0234">Simplified Communication Flow</text><rect fill="#FFFFFF" height="240.1289" style="stroke: #000000; stroke-width: 2.0;" width="445" x="13" y="186.3965"/><rect fill="#FFFFFF" height="90.8867" style="stroke: #000000; stroke-width: 2.0;" width="425" x="23" y="254.0176"/><rect fill="#FFFFFF" height="44.2656" style="stroke: none; stroke-width: 1.0;" width="425" x="23" y="300.6387"/><rect fill="#FFFFFF" height="60.6211" style="stroke: #000000; stroke-width: 2.0;" width="425" x="23" y="358.9043"/><line style="stroke: #000000; stroke-width: 1.0; stroke-dasharray: 5.0,5.0;" x1="96" x2="96" y1="81.4648" y2="472.8359"/><line style="stroke: #000000; stroke-width: 1.0; stroke-dasharray: 5.0,5.0;" x1="240" x2="240" y1="81.4648" y2="472.8359"/><line style="stroke: #000000; stroke-width: 1.0; stroke-dasharray: 5.0,5.0;" x1="379" x2="379" y1="81.4648" y2="472.8359"/><rect fill="#FFFFFF" height="30.4883" style="stroke: #000000; stroke-width: 1.5;" width="87" x="53" y="49.9766"/><text fill="#000000" font-family="sans-serif" font-size="14" lengthAdjust="spacingAndGlyphs" textLength="73" x="60" y="70.5117">Subscriber</text><rect fill="#FFFFFF" height="30.4883" style="stroke: #000000; stroke-width: 1.5;" width="87" x="53" y="471.8359"/><text fill="#000000" font-family="sans-serif" font-size="14" lengthAdjust="spacingAndGlyphs" textLength="73" x="60" y="492.3711">Subscriber</text><rect fill="#FFFFFF" height="30.4883" style="stroke: #000000; stroke-width: 1.5;" width="100" x="190" y="49.9766"/><text fill="#000000" font-family="sans-serif" font-size="14" lengthAdjust="spacingAndGlyphs" textLength="86" x="197" y="70.5117">Subscription</text><rect fill="#FFFFFF" height="30.4883" style="stroke: #000000; stroke-width: 1.5;" width="100" x="190" y="471.8359"/><text fill="#000000" font-family="sans-serif" font-size="14" lengthAdjust="spacingAndGlyphs" textLength="86" x="197" y="492.3711">Subscription</text><rect fill="#FFFFFF" height="30.4883" style="stroke: #000000; stroke-width: 1.5;" width="78" x="340" y="49.9766"/><text fill="#000000" font-family="sans-serif" font-size="14" lengthAdjust="spacingAndGlyphs" textLength="64" x="347" y="70.5117">Publisher</text><rect fill="#FFFFFF" height="30.4883" style="stroke: #000000; stroke-width: 1.5;" width="78" x="340" y="471.8359"/><text fill="#000000" font-family="sans-serif" font-size="14" lengthAdjust="spacingAndGlyphs" textLength="64" x="347" y="492.3711">Publisher</text><polygon fill="#000000" points="367,108.7754,377,112.7754,367,116.7754,371,112.7754" style="stroke: #000000; stroke-width: 1.0;"/><line style="stroke: #000000; stroke-width: 1.0;" x1="96.5" x2="373" y1="112.7754" y2="112.7754"/><text fill="#000000" font-family="sans-serif" font-size="13" lengthAdjust="spacingAndGlyphs" textLength="69" x="103.5" y="108.0332">subscribe()</text><polygon fill="#000000" points="251,138.0859,241,142.0859,251,146.0859,247,142.0859" style="stroke: #000000; stroke-width: 1.0;"/><line style="stroke: #000000; stroke-width: 1.0;" x1="245" x2="378" y1="142.0859" y2="142.0859"/><text fill="#000000" font-family="sans-serif" font-size="13" lengthAdjust="spacingAndGlyphs" textLength="33" x="257" y="137.3438">new()</text><polygon fill="#000000" points="107.5,167.3965,97.5,171.3965,107.5,175.3965,103.5,171.3965" style="stroke: #000000; stroke-width: 1.0;"/><line style="stroke: #000000; stroke-width: 1.0;" x1="101.5" x2="378" y1="171.3965" y2="171.3965"/><text fill="#000000" font-family="sans-serif" font-size="13" lengthAdjust="spacingAndGlyphs" textLength="164" x="113.5" y="166.6543">onSubscribe(Subscription)</text><path d="M13,186.3965 L87,186.3965 L87,193.3965 L77,203.3965 L13,203.3965 L13,186.3965 " fill="#EEEEEE" style="stroke: #000000; stroke-width: 1.0;"/><rect fill="none" height="240.1289" style="stroke: #000000; stroke-width: 2.0;" width="445" x="13" y="186.3965"/><text fill="#000000" font-family="sans-serif" font-size="13" font-weight="bold" lengthAdjust="spacingAndGlyphs" textLength="29" x="28" y="199.9648">loop</text><text fill="#000000" font-family="sans-serif" font-size="11" font-weight="bold" lengthAdjust="spacingAndGlyphs" textLength="96" x="102" y="199.0313">[until completed]</text><polygon fill="#000000" points="228,221.0176,238,225.0176,228,229.0176,232,225.0176" style="stroke: #000000; stroke-width: 1.0;"/><line style="stroke: #000000; stroke-width: 1.0;" x1="96.5" x2="234" y1="225.0176" y2="225.0176"/><text fill="#000000" font-family="sans-serif" font-size="13" lengthAdjust="spacingAndGlyphs" textLength="72" x="103.5" y="220.2754">request(int)</text><polygon fill="#000000" points="367,235.0176,377,239.0176,367,243.0176,371,239.0176" style="stroke: #000000; stroke-width: 1.0;"/><line style="stroke: #000000; stroke-width: 1.0;" x1="240" x2="373" y1="239.0176" y2="239.0176"/><path d="M23,254.0176 L85,254.0176 L85,261.0176 L75,271.0176 L23,271.0176 L23,254.0176 " fill="#EEEEEE" style="stroke: #000000; stroke-width: 1.0;"/><rect fill="none" height="90.8867" style="stroke: #000000; stroke-width: 2.0;" width="425" x="23" y="254.0176"/><text fill="#000000" font-family="sans-serif" font-size="13" font-weight="bold" lengthAdjust="spacingAndGlyphs" textLength="17" x="38" y="267.5859">alt</text><text fill="#000000" font-family="sans-serif" font-size="11" font-weight="bold" lengthAdjust="spacingAndGlyphs" textLength="54" x="100" y="266.6523">[no error]</text><polygon fill="#000000" points="107.5,288.6387,97.5,292.6387,107.5,296.6387,103.5,292.6387" style="stroke: #000000; stroke-width: 1.0;"/><line style="stroke: #000000; stroke-width: 1.0;" x1="101.5" x2="378" y1="292.6387" y2="292.6387"/><text fill="#000000" font-family="sans-serif" font-size="13" lengthAdjust="spacingAndGlyphs" textLength="62" x="113.5" y="287.8965">onNext(T)</text><line style="stroke: #000000; stroke-width: 1.0; stroke-dasharray: 2.0,2.0;" x1="23" x2="448" y1="301.6387" y2="301.6387"/><text fill="#000000" font-family="sans-serif" font-size="11" font-weight="bold" lengthAdjust="spacingAndGlyphs" textLength="36" x="28" y="312.2734">[error]</text><polygon fill="#000000" points="107.5,332.9043,97.5,336.9043,107.5,340.9043,103.5,336.9043" style="stroke: #000000; stroke-width: 1.0;"/><line style="stroke: #000000; stroke-width: 1.0;" x1="101.5" x2="378" y1="336.9043" y2="336.9043"/><text fill="#000000" font-family="sans-serif" font-size="13" lengthAdjust="spacingAndGlyphs" textLength="119" x="113.5" y="332.1621">onError(Throwable)</text><path d="M23,358.9043 L85,358.9043 L85,365.9043 L75,375.9043 L23,375.9043 L23,358.9043 " fill="#EEEEEE" style="stroke: #000000; stroke-width: 1.0;"/><rect fill="none" height="60.6211" style="stroke: #000000; stroke-width: 2.0;" width="425" x="23" y="358.9043"/><text fill="#000000" font-family="sans-serif" font-size="13" font-weight="bold" lengthAdjust="spacingAndGlyphs" textLength="17" x="38" y="372.4727">alt</text><text fill="#000000" font-family="sans-serif" font-size="11" font-weight="bold" lengthAdjust="spacingAndGlyphs" textLength="117" x="100" y="371.5391">[cancel subscription]</text><polygon fill="#000000" points="228,393.5254,238,397.5254,228,401.5254,232,397.5254" style="stroke: #000000; stroke-width: 1.0;"/><line style="stroke: #000000; stroke-width: 1.0;" x1="96.5" x2="234" y1="397.5254" y2="397.5254"/><text fill="#000000" font-family="sans-serif" font-size="13" lengthAdjust="spacingAndGlyphs" textLength="48" x="103.5" y="392.7832">cancel()</text><polygon fill="#000000" points="367,407.5254,377,411.5254,367,415.5254,371,411.5254" style="stroke: #000000; stroke-width: 1.0;"/><line style="stroke: #000000; stroke-width: 1.0;" x1="240" x2="373" y1="411.5254" y2="411.5254"/><polygon fill="#000000" points="107.5,450.8359,97.5,454.8359,107.5,458.8359,103.5,454.8359" style="stroke: #000000; stroke-width: 1.0;"/><line style="stroke: #000000; stroke-width: 1.0;" x1="101.5" x2="378" y1="454.8359" y2="454.8359"/><text fill="#000000" font-family="sans-serif" font-size="13" lengthAdjust="spacingAndGlyphs" textLength="84" x="113.5" y="450.0938">onComplete()</text><!--MD5=[d37f291678de919bfc4d51318317ac38]
@startuml

title Reactive Streams Specification\nSimplified Communication Flow
skinparam shadowing false
skinparam ParticipantPadding 20

skinparam sequence {
    ArrowColor black
    ActorBorderColor black
    LifeLineBorderColor black
    LifeLineBackgroundColor black

    ParticipantBorderColor black
    ParticipantBackgroundColor white
    ParticipantFontColor black
}

participant Subscriber
participant Subscription
participant Publisher

Subscriber -> Publisher : subscribe()
Publisher -> Subscription : new()
Publisher -> Subscriber : onSubscribe(Subscription)
loop until completed
Subscriber -> Subscription : request(int)
Subscription -> Publisher
alt no error
Publisher -> Subscriber : onNext(T)
else error
Publisher -> Subscriber : onError(Throwable)
end

alt cancel subscription
Subscriber -> Subscription : cancel()
Subscription -> Publisher
end
end
Publisher -> Subscriber : onComplete()
@enduml

PlantUML version 1.2019.11(Sun Sep 22 12:02:15 CEST 2019)
(GPL source distribution)
Java Runtime: Java(TM) SE Runtime Environment
JVM: Java HotSpot(TM) 64-Bit Server VM
Java Version: 1.8.0_151-b12
Operating System: Mac OS X
Default Encoding: UTF-8
Language: de
Country: DE
--></g></svg>